# xmcd
#
# Track frame offsets:
#	150
#	19304
#	32986
#	51090
#	65374
#	81719
#	94997
#	110722
#	132224
#	150928
#
# Disc length: 2249 seconds
# Revision: 1
# Processed by: cddbd v1.5.2PL0 Copyright (c) Steve Scherf et al.
# Submitted via: dBpowerAMP V12.0
#
DISCID=8708c70a
DTITLE=Doc Walker - Go
DYEAR=2009
DGENRE=Canadian
TTITLE0=Coming Home
TTITLE1=Speed of Life
TTITLE2=If I Fall
TTITLE3=Why
TTITLE4=The Hard Way
TTITLE5=I'm Gonna Make You Love Me
TTITLE6=From Here
TTITLE7=Girls in Their Summer Clothes
TTITLE8=Go
TTITLE9=Dancin' All Night
EXTD=
EXTT0=
EXTT1=
EXTT2=
EXTT3=
EXTT4=
EXTT5=
EXTT6=
EXTT7=
EXTT8=
EXTT9=
PLAYORDER=
